# xmcd
#
# Track frame offsets:
#	183
#	10758
#	21445
#	38558
#	51408
#	60370
#	70358
#	82633
#	95733
#	110085
#	119953
#	132678
#	142233
#	158758
#	170525
#	180633
#	198533
#	208758
#	220083
#	229083
#	240933
#	252895
#
# Disc length: 3561 seconds
#
# Revision: 1766596711
# Processed by: cddbd v1.5.2PL0 Copyright (c) Steve Scherf et al.
# Submitted via: EZCDAudioConverter 2.1.3.1
#
DISCID=440de716
DTITLE=Various Artist - KEEP ON TRUCKIN'
DYEAR=1985
DGENRE=Country
TTITLE0=RHYTHM OF THE ROAD
TTITLE1=TRUCKER'S LADY
TTITLE2=CONVOY
TTITLE3=ME and THE OLD C.B.
TTITLE4=TRUCK DRIVIN' MAN
TTITLE5=SIX DAYS ON THE ROAD
TTITLE6=FREIGHTLINER FEVER
TTITLE7=KING OF THE ROAD
TTITLE8=DRIVIN' MY LIFE AWAY
TTITLE9=DIXIE WINDS
TTITLE10=GIRL ON THE BILLBOARD
TTITLE11=TRUCKER'S WAY OF LIFE
TTITLE12=ROLL ON (EIGHTEEN WHEELER)
TTITLE13=ODE TO 10-33*
TTITLE14=LOOKING AT THE WORLD THROUGH A WINDSHIELD
TTITLE15=WOLFCREEK PASS
TTITLE16=MOVIN' ON
TTITLE17=THAT'S TRUCKDRIVING
TTITLE18=RIDIN' MY THUMB TO MEXICO
TTITLE19=DADDY'S GYPSY FEET
TTITLE20=SHADY REST
TTITLE21=HIGHWAY 40 BLUES
EXTD=
EXTT0=
EXTT1=
EXTT2=
EXTT3=
EXTT4=
EXTT5=
EXTT6=
EXTT7=
EXTT8=
EXTT9=
EXTT10=
EXTT11=
EXTT12=
EXTT13=
EXTT14=
EXTT15=
EXTT16=
EXTT17=
EXTT18=
EXTT19=
EXTT20=
EXTT21=
PLAYORDER=
